<?xml version="1.0" encoding="iso-8859-1"?>
<!-- Generator: Adobe Illustrator 19.0.0, SVG Export Plug-In . SVG Version: 6.00 Build 0)  -->
<svg version="1.1" id="Layer_1" xmlns="http://www.w3.org/2000/svg" xmlns:xlink="http://www.w3.org/1999/xlink" x="0px" y="0px"
	 viewBox="0 0 512 512" style="enable-background:new 0 0 512 512;" xml:space="preserve">
<path d="M0,355.2v-324c0-5.6,4.8-10.4,10.4-10.4h491.2c5.6,0,10.4,4.8,10.4,10.4v324H0z"/>
<g>
	<path style="fill:#BCBCBC;" d="M512,355.2v41.6c0,5.6-4.8,10.4-10.4,10.4H10.4c-5.6,0-10.4-4.8-10.4-10.4v-41.6H512z"/>
	<rect x="146.4" y="480.8" style="fill:#BCBCBC;" width="219.2" height="10.4"/>
</g>
<polygon style="fill:#333333;" points="328.8,480.8 183.2,480.8 193.6,407.2 318.4,407.2 "/>
<polygon points="318.4,407.2 193.6,407.2 187.792,448.28 320.272,420.424 "/>
<rect x="20.8" y="41.6" style="fill:#FFFFFF;" width="470.4" height="292.8"/>
<g>
	<path style="fill:#999999;" d="M327.304,188H159.048v-25.648c0,0,31.696,1.864,63.84-32.64L327.304,188z"/>
	<path style="fill:#999999;" d="M327.304,188H159.048v25.648c0,0,31.696-1.864,63.84,32.64L327.304,188z"/>
</g>
<polygon style="fill:#E21B1B;" points="125.904,228.392 125.904,147.608 159.048,150.808 159.048,225.192 "/>
<g>
	<ellipse style="fill:#FFFFFF;" cx="216.16" cy="188" rx="10.872" ry="10.976"/>
	<polygon style="fill:#FFFFFF;" points="316.88,200.776 261.288,200.776 251.608,191 206.488,191 206.488,185 254.104,185 
		263.792,194.776 316.88,194.776 	"/>
</g>
<g>
	<rect x="370.56" y="70.416" style="fill:#999999;" width="6" height="243.12"/>
	<circle style="fill:#999999;" cx="373.584" cy="70.416" r="12.52"/>
	<circle style="fill:#999999;" cx="373.584" cy="305.6" r="12.52"/>
</g>
<path style="fill:#222020;" d="M281.024,283.56v-6c49.384,0,89.56-40.176,89.56-89.56s-40.176-89.56-89.56-89.56v-6
	c52.696,0,95.56,42.864,95.56,95.56C376.584,240.696,333.72,283.56,281.024,283.56z"/>
<g>
	<rect x="361.344" y="179.752" style="fill:#E21B1B;" width="24.392" height="24.392"/>
	<rect x="268.848" y="268.36" style="fill:#E21B1B;" width="24.392" height="24.392"/>
	<rect x="268.84" y="83.224" style="fill:#E21B1B;" width="24.392" height="24.392"/>
</g>
<g>
</g>
<g>
</g>
<g>
</g>
<g>
</g>
<g>
</g>
<g>
</g>
<g>
</g>
<g>
</g>
<g>
</g>
<g>
</g>
<g>
</g>
<g>
</g>
<g>
</g>
<g>
</g>
<g>
</g>
</svg>
