<?xml version="1.0" encoding="iso-8859-1"?>
<!-- Generator: Adobe Illustrator 19.0.0, SVG Export Plug-In . SVG Version: 6.00 Build 0)  -->
<svg version="1.1" id="Layer_1" xmlns="http://www.w3.org/2000/svg" xmlns:xlink="http://www.w3.org/1999/xlink" x="0px" y="0px"
	 viewBox="0 0 512 512" style="enable-background:new 0 0 512 512;" xml:space="preserve">
<path d="M395.688,512H190.52c-21.8,0-39.632-17.832-39.632-39.632V39.632C150.888,17.832,168.72,0,190.52,0h205.176
	c21.8,0,39.632,17.832,39.632,39.632v432.736C435.32,494.168,417.488,512,395.688,512z"/>
<rect x="169.672" y="40.4" style="fill:#FFFFFF;" width="246.912" height="403.76"/>
<g>
	<path style="fill:#CCCCCC;" d="M330.136,24.424h-50.528c-2.272,0-4.128-1.856-4.128-4.128l0,0c0-2.272,1.856-4.128,4.128-4.128
		h50.528c2.272,0,4.128,1.856,4.128,4.128l0,0C334.264,22.568,332.408,24.424,330.136,24.424z"/>
	<circle style="fill:#CCCCCC;" cx="256.072" cy="20.296" r="4.128"/>
	<path style="fill:#CCCCCC;" d="M293.104,497.568c-10.768,0-19.52-8.76-19.52-19.52s8.76-19.52,19.52-19.52s19.52,8.76,19.52,19.52
		S303.872,497.568,293.104,497.568z M293.104,462.52c-8.56,0-15.52,6.96-15.52,15.52s6.96,15.52,15.52,15.52s15.52-6.96,15.52-15.52
		S301.664,462.52,293.104,462.52z"/>
	<rect x="242.232" y="252.008" style="fill:#CCCCCC;" width="113.816" height="8"/>
	<polygon style="fill:#CCCCCC;" points="356.024,394.512 295.216,394.512 295.216,117.504 356.024,117.504 356.024,125.504 
		303.216,125.504 303.216,386.512 356.024,386.512 	"/>
</g>
<rect x="378.872" y="212.808" style="fill:#BBBBBB;" width="86.384" height="86.384"/>
<rect x="382.856" y="70.24" style="fill:#FFFFFF;" width="78.384" height="78.384"/>
<path style="fill:#E21B1B;" d="M457.24,74.232v70.384h-70.384V74.232H457.24 M465.24,66.232h-86.384v86.384h86.384L465.24,66.232
	L465.24,66.232z"/>
<rect x="382.856" y="363.36" style="fill:#FFFFFF;" width="78.384" height="78.392"/>
<g>
	<path style="fill:#E21B1B;" d="M457.24,367.384v70.384h-70.384v-70.384H457.24 M465.24,359.384h-86.384v86.384h86.384
		L465.24,359.384L465.24,359.384z"/>
	<path style="fill:#E21B1B;" d="M144.84,158.112c-54.176,0-98.096,43.92-98.096,98.096s43.92,98.096,98.096,98.096
		s98.096-43.92,98.096-98.096S199.016,158.112,144.84,158.112z"/>
</g>
<path style="fill:#FFFFFF;" d="M158.248,256.8v-8.032c8.232-4.68,13.8-13.512,13.8-23.656c0-15.024-12.176-27.2-27.2-27.2
	s-27.2,12.176-27.2,27.2c0,10.144,5.568,18.976,13.8,23.656v8.032c-25.352,1.184-38.24,18.328-38.24,29.848c0,8.672,0,9.464,0,9.464
	h51.648h51.648c0,0,0-0.792,0-9.464C196.488,275.128,183.6,257.984,158.248,256.8z"/>
<g>
</g>
<g>
</g>
<g>
</g>
<g>
</g>
<g>
</g>
<g>
</g>
<g>
</g>
<g>
</g>
<g>
</g>
<g>
</g>
<g>
</g>
<g>
</g>
<g>
</g>
<g>
</g>
<g>
</g>
</svg>
