<?xml version="1.0" standalone="no"?>
<!DOCTYPE svg PUBLIC "-//W3C//DTD SVG 20010904//EN"
 "http://www.w3.org/TR/2001/REC-SVG-20010904/DTD/svg10.dtd">
<svg version="1.0" xmlns="http://www.w3.org/2000/svg"
 width="500.000000pt" height="500.000000pt" viewBox="0 0 500.000000 500.000000"
 preserveAspectRatio="xMidYMid meet">

<g transform="translate(0.000000,500.000000) scale(0.100000,-0.100000)"
fill="#000000" stroke="none">
<path d="M360 4115 c0 -289 2 -525 5 -525 3 0 18 27 35 59 82 164 276 417 436
571 152 146 370 307 517 381 31 16 57 31 57 34 0 3 -236 5 -525 5 l-525 0 0
-525z"/>
<path d="M1382 4585 c-403 -215 -755 -567 -967 -967 l-55 -105 0 -1018 0
-1018 55 -103 c212 -402 566 -757 967 -969 l105 -55 1018 0 1018 0 105 55
c401 212 755 567 967 969 l55 103 0 1018 0 1018 -55 103 c-212 402 -566 757
-967 969 l-105 55 -1019 0 -1019 0 -103 -55z m1658 -1504 l0 -258 78 -35 77
-35 3 294 2 293 240 0 240 0 0 -403 0 -403 50 -21 50 -21 0 -55 0 -54 -50 -21
-50 -21 0 -280 0 -281 -240 0 -240 0 0 170 c0 94 -3 170 -6 170 -3 0 -39 -15
-80 -34 l-74 -35 0 -135 0 -136 -880 0 -880 0 0 294 0 294 -30 12 c-28 12 -30
16 -30 67 0 52 2 55 30 66 l30 11 0 408 0 408 880 0 880 0 0 -259z"/>
<path d="M3040 2439 c0 -138 4 -249 8 -247 5 2 41 17 80 33 l72 30 -2 184 -3
184 -77 33 -78 33 0 -250z"/>
<path d="M3600 4635 c0 -3 26 -18 58 -34 146 -74 364 -235 516 -381 160 -154
354 -407 436 -571 17 -32 32 -59 35 -59 3 0 5 236 5 525 l0 525 -525 0 c-289
0 -525 -2 -525 -5z"/>
<path d="M360 875 l0 -525 525 0 c289 0 525 2 525 5 0 3 -27 18 -59 35 -164
82 -417 276 -571 436 -146 152 -307 370 -381 517 -16 31 -31 57 -34 57 -3 0
-5 -236 -5 -525z"/>
<path d="M4614 1345 c-121 -230 -345 -504 -564 -687 -105 -88 -298 -221 -393
-271 l-62 -32 524 -3 c288 -1 526 -1 528 1 2 2 2 240 1 528 l-3 524 -31 -60z"/>
</g>
</svg>
